<svg width="180" height="180" viewBox="0 0 180 180" fill="none" xmlns="http://www.w3.org/2000/svg">
<path d="M45.3848 95.2969L45.0098 95.2002C38.1886 93.4423 31.8532 89.872 27.7207 84.5195C23.5712 79.145 21.5 73.0921 21.5 66.3447V13.5H33.7695V60.9824H45.3848V13.5H57.6543V60.9824H69.2695V13.5H81.5381V67.0771C81.5381 73.8269 79.7604 79.1469 75.6123 84.5195C71.4838 89.8667 64.8586 93.4402 58.0293 95.2002L57.6543 95.2969V164.935L45.3848 165.477V95.2969ZM122.346 92.4658L122.003 92.3525C115.205 90.0999 108.573 85.3766 104.425 78.1924C100.256 70.9727 98.167 62.773 98.167 53.5801C98.167 42.3695 101.142 32.8907 107.072 25.1152C113.002 17.3402 120.084 13.5001 128.333 13.5C136.58 13.5 143.663 17.3703 149.593 25.209C155.524 33.0487 158.5 42.56 158.5 53.7705C158.5 62.9635 156.411 71.1309 152.243 78.2861C148.092 85.4139 141.75 90.1022 134.958 92.3525L134.615 92.4658V165.477L122.346 164.935V92.4658Z" fill="#F690AE" stroke="white"/>
</svg>
