<svg width="180" height="180" viewBox="0 0 180 180" fill="none" xmlns="http://www.w3.org/2000/svg">
<path d="M43.5769 169.385V96.5944C36.4769 94.7537 29.8472 91.0065 25.5083 85.3528C21.1694 79.6991 19 73.3222 19 66.2222V11H32.6538L32.6538 60.1538H43.5769L43.5769 11H57.2308L57.2308 60.1538H68.1538V11H81.8077L81.8077 66.9808C81.8077 74.0808 79.9417 79.6991 75.6028 85.3528C71.2639 91.0065 64.3308 94.7537 57.2308 96.5944V168.778L43.5769 169.385ZM122.769 168.778L122.769 93.6361C115.669 91.2694 108.736 86.306 104.397 78.7458C100.058 71.1856 97.8889 62.6065 97.8889 53.0083C97.8889 41.3065 100.979 31.3796 107.158 23.2278C113.338 15.0759 120.767 11 129.444 11C138.122 11 145.551 15.1088 151.731 23.3264C157.91 31.544 161 41.5037 161 53.2056C161 62.8037 158.831 71.35 154.492 78.8444C150.153 86.3389 143.523 91.2694 136.423 93.6361V169.385L122.769 168.778Z" fill="#F690AE"/>
</svg>
