<svg width="180" height="180" viewBox="0 0 180 180" fill="none" xmlns="http://www.w3.org/2000/svg">
<path d="M45.8848 94.9092L45.1338 94.7158C38.3916 92.9782 32.1645 89.4572 28.1162 84.2139C24.0339 78.9263 22 72.9807 22 66.3447V14H33.2695V61.4824H45.8848V14H57.1543V61.4824H69.7695V14H81.0381V67.0771C81.0381 73.718 79.2963 78.9301 75.2168 84.2139C71.1764 89.447 64.6631 92.974 57.9043 94.7158L57.1543 94.9092V164.457L45.8848 164.954V94.9092ZM122.846 92.1045L122.161 91.8779C115.464 89.659 108.937 85.0078 104.857 77.9424C100.737 70.8061 98.667 62.6942 98.667 53.5801C98.667 42.463 101.616 33.0952 107.47 25.4189C113.323 17.7436 120.268 14.0001 128.333 14C136.394 14 143.339 17.7715 149.194 25.5107C155.051 33.2521 158 42.6535 158 53.7705C158 62.8848 155.929 70.9633 151.811 78.0342C147.724 85.0501 141.484 89.6635 134.801 91.8779L134.115 92.1045V164.954L122.846 164.457V92.1045Z" fill="#F690AE" stroke="white" stroke-width="2"/>
</svg>
