<svg width="64" height="64" viewBox="0 0 64 64" fill="none" xmlns="http://www.w3.org/2000/svg">
<path d="M15 61V34.3444C12.4 33.6704 9.97222 32.2981 8.38333 30.2278C6.79444 28.1574 6 25.8222 6 23.2222V3H11L11 21H15L15 3H20L20 21H24V3H29L29 23.5C29 26.1 28.3167 28.1574 26.7278 30.2278C25.1389 32.2981 22.6 33.6704 20 34.3444V60.7778L15 61ZM44 60.7778L44 33.2611C41.4 32.3944 38.8611 30.5769 37.2722 27.8083C35.6833 25.0398 34.8889 21.8981 34.8889 18.3833C34.8889 14.0981 36.0204 10.463 38.2833 7.47778C40.5463 4.49259 43.2667 3 46.4444 3C49.6222 3 52.3426 4.50463 54.6056 7.51389C56.8685 10.5231 58 14.1704 58 18.4556C58 21.9704 57.2056 25.1 55.6167 27.8444C54.0278 30.5889 51.6 32.3944 49 33.2611V61L44 60.7778Z" fill="#F690AE"/>
</svg>
