<svg width="180" height="180" viewBox="0 0 180 180" fill="none" xmlns="http://www.w3.org/2000/svg">
<rect width="180" height="180" fill="#D54E33"/>
<path d="M89.6609 30.9424C121.493 30.5327 147.64 55.9842 148.089 87.8154C148.539 119.647 123.119 145.826 91.2887 146.314C59.4025 146.803 33.1678 121.33 32.7178 89.4433C32.2678 57.5565 57.7733 31.3531 89.6609 30.9424ZM92.0394 126.865C113.133 125.96 129.513 108.149 128.652 87.053C127.791 65.9573 110.015 49.54 88.917 50.3564C67.7562 51.1754 51.2793 69.0163 52.1428 90.1754C53.0063 111.334 70.8823 127.773 92.0394 126.865Z" fill="#F690AE"/>
<path d="M86.9649 55.2462C105.413 53.3383 121.91 66.7591 123.797 85.2098C125.683 103.66 112.242 120.142 93.7895 122.006C75.3677 123.867 58.9201 110.454 57.0369 92.0344C55.154 73.6148 68.5473 57.1512 86.9649 55.2462Z" fill="#F690AE"/>
<path d="M161.434 40.499C170.691 44.4574 168.876 73.3842 167.998 81.4688C167.96 81.8235 167.199 83.9865 166.979 84.3962C163.603 90.6828 164.359 96.3458 164.656 103.113L165.472 120.277C165.718 125.372 166.659 131.697 163.726 136.052C161.475 137.862 160.071 137.331 157.695 136.314C156.645 134.535 156.153 133.301 156.271 131.177C156.602 125.216 157.271 119.128 157.78 113.171C158.65 102.936 159.368 92.6881 159.934 82.4314C160.445 73.5767 160.574 64.5104 160.951 55.6388C161.152 50.8931 160.925 45.1812 161.434 40.499Z" fill="#F690AE"/>
<path d="M22.2372 61.5145C22.7038 60.8398 22.9871 60.5722 23.768 60.4606C24.1575 60.7464 24.3041 60.9381 24.6172 61.2918C24.6323 61.9999 24.6771 63.8718 24.5422 64.4752C23.4632 69.3043 19.1889 72.2467 19.3148 77.4218C19.4455 82.7907 19.9543 88.1712 20.4201 93.54L22.2793 115.58C22.6645 120.284 24.6806 131.689 20.8286 135.407C17.1626 138.946 12.5267 134.281 12.6779 130.166C12.4997 125.145 13.0253 120.446 13.4185 115.589L15.6216 90.0609C15.8714 87.0709 16.602 79.777 16.5752 77.1982C16.5071 70.6622 11.0988 69.9108 11.2532 61.2332C11.865 61.3068 12.4919 61.3488 13.0671 61.5578C13.7722 62.096 13.4273 61.9786 14.317 62.0146C14.6029 61.8442 14.9112 61.6907 15.1458 61.467C15.999 61.1318 16.1259 61.1744 17.0202 61.4144C17.5991 62.0066 17.257 61.8464 18.0794 61.915C18.545 61.6094 18.5347 61.6907 18.8205 61.2547C19.272 61.3241 19.9721 61.4114 20.3948 61.509C21.1315 61.9964 20.8086 61.865 21.7034 61.929C21.8283 61.8377 22.1541 61.6197 22.2372 61.5145Z" fill="#F690AE"/>
<path d="M22.2471 61.5133C22.9113 59.3568 22.3029 44.9366 22.8881 40.9885L23.267 40.9152C24.7172 43.8265 24.4223 56.8902 24.6271 61.2906C24.314 60.9369 24.1673 60.7452 23.7779 60.4593C22.9969 60.571 22.7136 60.8385 22.2471 61.5133Z" fill="#F690AE"/>
<path d="M15.143 61.4666C14.9012 55.5032 15.3688 48.6807 15.3275 42.6442C15.3225 41.8868 15.4176 41.1495 15.9682 40.6494L16.2886 40.8331C17.2294 41.9877 16.8838 58.2511 17.0174 61.414C16.1231 61.174 15.9963 61.1314 15.143 61.4666Z" fill="#F690AE"/>
<path d="M11.25 61.2323C11.2633 58.6856 11.486 42.1304 12.2592 40.945L12.6283 40.911C13.2751 42.3114 13.1732 59.006 13.0638 61.557C12.4887 61.348 11.8617 61.3059 11.25 61.2323Z" fill="#F690AE"/>
<path d="M18.8167 61.2546C18.8006 58.6633 18.5811 42.5694 19.1836 41.2086L19.6043 40.8479L20.0506 41.0156C20.5619 42.3699 20.2789 58.576 20.391 61.5089C19.9683 61.4113 19.2682 61.3239 18.8167 61.2546Z" fill="#F690AE"/>
</svg>
