<svg width="16" height="16" viewBox="0 0 16 16" fill="none" xmlns="http://www.w3.org/2000/svg">
<path d="M4.61805 8.59253C4.17259 8.59253 3.94951 9.1311 4.26449 9.44608L8.29841 13.48C8.6909 13.8725 8.68808 14.5097 8.29213 14.8987C7.90111 15.2829 7.27352 15.2801 6.88591 14.8925L0.293044 8.29964C-0.0974807 7.90911 -0.09748 7.27595 0.293044 6.88542L6.88591 0.292556C7.27352 -0.0950567 7.9011 -0.0978325 8.29213 0.286335C8.68808 0.67534 8.6909 1.31256 8.29841 1.70506L4.26449 5.73898C3.94951 6.05396 4.17259 6.59253 4.61804 6.59253H14.5859C15.1382 6.59253 15.5859 7.04024 15.5859 7.59253C15.5859 8.14481 15.1382 8.59253 14.5859 8.59253H4.61805Z" fill="#D54E33"/>
</svg>
